<svg xmlns="http://www.w3.org/2000/svg" xmlns:xlink="http://www.w3.org/1999/xlink" width="500" zoomAndPan="magnify" viewBox="0 0 375 374.999991" height="500" preserveAspectRatio="xMidYMid meet" version="1.0"><defs><g/><clipPath id="581a891599"><path d="M 118.308594 87.945312 L 268.308594 87.945312 L 268.308594 144.945312 L 118.308594 144.945312 Z M 118.308594 87.945312 " clip-rule="nonzero"/></clipPath></defs><g fill="#160078" fill-opacity="1"><g transform="translate(122.175001, 216.964315)"><g><path d="M 17.8125 -8.609375 C 17.8125 -4.054688 17.6875 0.242188 17.4375 4.296875 C 17.195312 8.359375 16.457031 12.097656 15.21875 15.515625 C 13.976562 18.929688 12.019531 22 9.34375 24.71875 C 6.675781 27.4375 2.914062 29.738281 -1.9375 31.625 L -2.53125 30.28125 C 2.226562 28.300781 5.867188 25.773438 8.390625 22.703125 C 10.910156 19.640625 12.171875 15.4375 12.171875 10.09375 C 12.171875 6.632812 11.800781 3.195312 11.0625 -0.21875 C 10.320312 -3.632812 9.503906 -7.050781 8.609375 -10.46875 C 7.722656 -13.882812 6.90625 -17.296875 6.15625 -20.703125 C 5.414062 -24.117188 5.046875 -27.609375 5.046875 -31.171875 C 5.046875 -34.640625 5.492188 -38.007812 6.390625 -41.28125 C 2.921875 -41.28125 -0.046875 -40.6875 -2.515625 -39.5 C -4.992188 -38.3125 -7.472656 -36.578125 -9.953125 -34.296875 L -11.4375 -34.59375 C -8.863281 -37.164062 -6.039062 -39.242188 -2.96875 -40.828125 C 0.101562 -42.410156 3.46875 -43.351562 7.125 -43.65625 C 10.289062 -54.039062 15.085938 -61.484375 21.515625 -65.984375 C 27.953125 -70.492188 36.566406 -72.75 47.359375 -72.75 L 67.546875 -72.75 C 64.972656 -71.957031 63.265625 -70.472656 62.421875 -68.296875 C 61.585938 -66.117188 61.171875 -63.84375 61.171875 -61.46875 L 61.171875 -12.171875 C 61.171875 -9.703125 61.566406 -7.28125 62.359375 -4.90625 C 63.148438 -2.53125 64.878906 -0.894531 67.546875 0 L 40.09375 0 C 41.875 -0.59375 43.234375 -1.582031 44.171875 -2.96875 C 45.109375 -4.351562 45.75 -5.9375 46.09375 -7.71875 C 46.445312 -9.5 46.625 -11.328125 46.625 -13.203125 C 46.625 -15.085938 46.625 -16.773438 46.625 -18.265625 C 46.625 -21.722656 45.734375 -24.8125 43.953125 -27.53125 C 42.171875 -30.257812 39.914062 -32.5625 37.1875 -34.4375 C 34.46875 -36.320312 31.472656 -37.804688 28.203125 -38.890625 C 24.941406 -39.984375 21.828125 -40.582031 18.859375 -40.6875 C 18.265625 -38.007812 17.867188 -35.304688 17.671875 -32.578125 C 17.472656 -29.859375 17.375 -27.113281 17.375 -24.34375 C 17.375 -21.769531 17.445312 -19.144531 17.59375 -16.46875 C 17.738281 -13.800781 17.8125 -11.179688 17.8125 -8.609375 Z M 19.296875 -43.0625 C 24.941406 -42.5625 30.210938 -40.800781 35.109375 -37.78125 C 40.015625 -34.757812 43.800781 -30.726562 46.46875 -25.6875 L 46.46875 -63.390625 C 46.46875 -65.367188 46.171875 -67.125 45.578125 -68.65625 C 44.984375 -70.195312 43.5 -70.96875 41.125 -70.96875 C 37.851562 -70.96875 35.003906 -70 32.578125 -68.0625 C 30.160156 -66.132812 28.0625 -63.757812 26.28125 -60.9375 C 24.5 -58.125 23.035156 -55.082031 21.890625 -51.8125 C 20.753906 -48.550781 19.890625 -45.632812 19.296875 -43.0625 Z M 19.296875 -43.0625 "/></g></g></g><path stroke-linecap="butt" transform="matrix(1.392013, 0, 0, 1.392013, 173.31553, 98.643181)" fill="none" stroke-linejoin="miter" d="M 94.790826 94.608764 C 91.389727 97.802205 87.724847 100.252007 83.801797 101.952556 C 79.895584 103.669943 75.599312 104.528636 70.912979 104.528636 C 67.994545 104.528636 65.269737 104.043166 62.73575 103.072225 C 60.2186 102.118121 57.805279 100.928298 55.495787 99.505561 C 53.186295 98.080018 50.966601 96.536615 48.831092 94.86974 C 46.695584 93.202865 44.526401 91.656656 42.320738 90.233919 C 40.115075 88.811182 37.858901 87.61294 35.549409 86.639193 C 33.239917 85.685089 30.767666 85.208037 28.12985 85.208037 C 25.14126 85.208037 22.262112 85.72157 19.483987 86.745828 C 16.722699 87.786923 14.205549 89.226497 11.932537 91.067356 L 11.385331 90.13009 C 13.658343 88.707353 15.880843 87.492274 18.050025 86.484853 C 20.222014 85.494269 22.660591 84.896551 25.368562 84.688893 C 22.312624 84.046276 19.483987 82.926607 16.879845 81.327081 C 14.292541 79.73036 12.070041 77.796897 10.212345 75.521079 C 8.371486 73.231231 6.915075 70.669182 5.837499 67.840545 C 4.779566 64.992265 4.249197 61.998063 4.249197 58.855134 C 4.249197 55.243571 4.936713 51.842472 6.306132 48.649031 C 7.695195 45.435947 9.578146 42.640984 11.957793 40.264144 C 14.354277 37.884497 17.149239 36.001545 20.34268 34.612483 C 23.536121 33.22342 26.948445 32.530292 30.576845 32.530292 C 34.205245 32.530292 37.614762 33.22342 40.81101 34.612483 C 44.021288 36.001545 46.81625 37.884497 49.195897 40.264144 C 51.572737 42.640984 53.455689 45.435947 54.844752 48.649031 C 56.233814 51.842472 56.929749 55.243571 56.929749 58.855134 C 56.929749 62.135567 56.35448 65.270078 55.209556 68.255861 C 54.081469 71.241644 52.518422 73.907522 50.523223 76.250688 C 48.544861 78.593854 46.165215 80.530123 43.387089 82.056689 C 40.608964 83.586061 37.589507 84.565421 34.325911 85.00038 C 38.091814 85.435339 41.790369 86.468015 45.418769 88.09841 C 49.047169 89.731611 52.633476 91.432161 56.174884 93.202865 C 59.73313 94.990406 63.325049 96.595545 66.953449 98.021088 C 70.581849 99.443825 74.314078 100.156597 78.150136 100.156597 C 81.276229 100.156597 84.149764 99.651483 86.770743 98.644062 C 89.408559 97.656284 91.875198 96.059563 94.165046 93.8539 Z M 15.967835 54.168801 C 15.967835 55.731847 16.105338 57.561481 16.38315 59.663316 C 16.680606 61.762344 17.112759 63.934333 17.685221 66.17367 C 18.260489 68.413007 18.987292 70.615864 19.874047 72.787853 C 20.757996 74.957036 21.835572 76.901723 23.103969 78.61911 C 24.386396 80.322466 25.845613 81.700303 27.478814 82.761042 C 29.126046 83.818975 30.941649 84.349344 32.920011 84.349344 C 35.420324 84.349344 37.502515 83.644991 39.16939 82.239091 C 40.836265 80.816355 42.163592 79.054069 43.154176 76.952235 C 44.161597 74.853207 44.854725 72.613869 45.236367 70.234223 C 45.634845 67.840545 45.836891 65.651719 45.836891 63.673357 C 45.836891 61.173044 45.514179 58.204098 44.871562 54.766519 C 44.228946 51.312103 43.196269 48.006414 41.773532 44.846647 C 40.367632 41.686881 38.535192 38.987329 36.279017 36.747991 C 34.03968 34.508654 31.356965 33.388985 28.233679 33.388985 C 25.820358 33.388985 23.813934 34.118594 22.217213 35.575005 C 20.620493 37.017385 19.352096 38.804926 18.41483 40.940435 C 17.4944 43.075943 16.851784 45.357373 16.489785 47.787532 C 16.141818 50.200852 15.967835 52.327942 15.967835 54.168801 Z M 15.967835 54.168801 " stroke="#ffffff" stroke-width="8.000025" stroke-opacity="1" stroke-miterlimit="4"/><g fill="#160078" fill-opacity="1"><g transform="translate(173.576532, 216.964315)"><g><path d="M 131.6875 13.359375 C 126.9375 17.816406 121.835938 21.234375 116.390625 23.609375 C 110.953125 25.984375 104.96875 27.171875 98.4375 27.171875 C 94.375 27.171875 90.585938 26.5 87.078125 25.15625 C 83.566406 23.820312 80.203125 22.164062 76.984375 20.1875 C 73.765625 18.207031 70.671875 16.054688 67.703125 13.734375 C 64.734375 11.410156 61.710938 9.257812 58.640625 7.28125 C 55.578125 5.300781 52.4375 3.640625 49.21875 2.296875 C 46 0.960938 42.5625 0.296875 38.90625 0.296875 C 34.738281 0.296875 30.722656 1.015625 26.859375 2.453125 C 23.003906 3.890625 19.492188 5.894531 16.328125 8.46875 L 15.59375 7.125 C 18.757812 5.144531 21.847656 3.460938 24.859375 2.078125 C 27.878906 0.691406 31.269531 -0.148438 35.03125 -0.453125 C 30.78125 -1.335938 26.847656 -2.894531 23.234375 -5.125 C 19.617188 -7.351562 16.523438 -10.050781 13.953125 -13.21875 C 11.378906 -16.382812 9.347656 -19.945312 7.859375 -23.90625 C 6.378906 -27.863281 5.640625 -32.019531 5.640625 -36.375 C 5.640625 -41.425781 6.601562 -46.175781 8.53125 -50.625 C 10.46875 -55.082031 13.09375 -58.96875 16.40625 -62.28125 C 19.71875 -65.59375 23.597656 -68.210938 28.046875 -70.140625 C 32.503906 -72.078125 37.257812 -73.046875 42.3125 -73.046875 C 47.363281 -73.046875 52.113281 -72.078125 56.5625 -70.140625 C 61.019531 -68.210938 64.90625 -65.59375 68.21875 -62.28125 C 71.53125 -58.96875 74.148438 -55.082031 76.078125 -50.625 C 78.015625 -46.175781 78.984375 -41.425781 78.984375 -36.375 C 78.984375 -31.820312 78.191406 -27.46875 76.609375 -23.3125 C 75.023438 -19.15625 72.847656 -15.441406 70.078125 -12.171875 C 67.304688 -8.910156 63.988281 -6.210938 60.125 -4.078125 C 56.269531 -1.953125 52.066406 -0.59375 47.515625 0 C 52.753906 0.59375 57.894531 2.023438 62.9375 4.296875 C 67.988281 6.578125 72.988281 8.953125 77.9375 11.421875 C 82.894531 13.898438 87.894531 16.128906 92.9375 18.109375 C 97.988281 20.085938 103.1875 21.078125 108.53125 21.078125 C 112.882812 21.078125 116.890625 20.382812 120.546875 19 C 124.210938 17.613281 127.628906 15.390625 130.796875 12.328125 Z M 21.96875 -42.90625 C 21.96875 -40.726562 22.164062 -38.175781 22.5625 -35.25 C 22.957031 -32.332031 23.550781 -29.316406 24.34375 -26.203125 C 25.132812 -23.085938 26.148438 -20.019531 27.390625 -17 C 28.628906 -13.976562 30.140625 -11.28125 31.921875 -8.90625 C 33.703125 -6.53125 35.726562 -4.597656 38 -3.109375 C 40.28125 -1.628906 42.804688 -0.890625 45.578125 -0.890625 C 49.046875 -0.890625 51.941406 -1.878906 54.265625 -3.859375 C 56.585938 -5.835938 58.441406 -8.285156 59.828125 -11.203125 C 61.210938 -14.128906 62.175781 -17.25 62.71875 -20.5625 C 63.269531 -23.875 63.546875 -26.914062 63.546875 -29.6875 C 63.546875 -33.15625 63.097656 -37.289062 62.203125 -42.09375 C 61.316406 -46.894531 59.882812 -51.492188 57.90625 -55.890625 C 55.925781 -60.296875 53.375 -64.054688 50.25 -67.171875 C 47.132812 -70.296875 43.398438 -71.859375 39.046875 -71.859375 C 35.679688 -71.859375 32.882812 -70.84375 30.65625 -68.8125 C 28.425781 -66.78125 26.664062 -64.28125 25.375 -61.3125 C 24.09375 -58.34375 23.203125 -55.175781 22.703125 -51.8125 C 22.210938 -48.445312 21.96875 -45.476562 21.96875 -42.90625 Z M 21.96875 -42.90625 "/></g></g></g><g clip-path="url(#581a891599)"><path stroke-linecap="butt" transform="matrix(0.00991053, 0, 0, 0.00991053, 118.320928, 87.957702)" fill-opacity="1" fill="#160078" fill-rule="evenodd" stroke-linejoin="miter" d="M 2904.834239 4051.02111 L 2904.834239 3533.106078 C 2904.834239 2086.17603 3388.852245 1930.092048 4069.945986 1913.931837 C 4120.003222 1831.160029 4095.959983 1779.132035 4006.88175 1671.922835 C 3842.126436 1552.100788 3732.158175 1340.835599 3732.158175 1101.191505 C 3732.158175 727.930063 3997.027964 424.827582 4322.99123 424.827582 C 4650.13695 424.827582 4915.006738 727.930063 4915.006738 1101.191505 C 4915.006738 1345.171266 4801.885266 1558.01306 4633.188437 1677.046804 C 4546.869265 1779.920338 4529.132449 1831.948332 4579.977988 1913.931837 C 5123.118715 1928.12129 5540.919273 2030.994824 5685.967015 2811.020584 C 5760.067491 2984.841383 5974.091739 3382.934368 6194.816563 2837.034581 C 6331.981275 2012.075554 6756.87656 1906.048808 7311.84183 1891.859355 C 7361.899067 1809.087546 7337.855827 1757.059552 7249.171746 1649.850352 C 7084.02228 1530.028305 6974.05402 1319.157269 6974.05402 1079.119023 C 6974.05402 863.124017 7063.132252 669.989797 7201.87357 545.832083 C 7028.841074 664.865828 6901.924301 707.828338 6923.996783 826.073779 C 6916.902057 666.836585 7033.965044 537.160751 7177.042027 461.089517 C 7058.008283 480.008788 6981.148746 496.957301 6961.835324 582.094019 C 7100.182491 223.022029 7672.884577 336.931804 7907.010551 526.12451 C 8059.153018 647.917314 8158.085037 850.117019 8158.085037 1079.119023 C 8158.085037 1323.098783 8044.963565 1535.940577 7875.872584 1654.974321 C 7789.947564 1757.847855 7771.816596 1809.875849 7823.056287 1891.859355 C 8378.021558 1906.048808 8802.12854 2014.046311 8938.110797 2842.15855 C 9024.824121 3030.957105 9234.906855 3367.168309 9448.1428 2796.831131 C 9595.949602 2027.841612 10012.961857 1926.150533 10554.131826 1913.143535 C 10604.189063 1829.977574 10580.145823 1777.94958 10491.067591 1671.134532 C 10325.918125 1550.918333 10215.949865 1340.047296 10215.949865 1100.009051 C 10215.949865 971.909823 10247.087831 852.876079 10301.086582 751.185 L 10301.086582 487.891817 L 9858.848632 602.195744 L 10154.068084 165.081763 L 11621.099857 3.085509 L 11636.865916 33.04102 L 11548.970138 120.936798 L 11533.992382 722.806094 C 11533.992382 897.809347 11630.953644 1252.151519 11474.869661 1252.151519 L 11446.096604 1252.151519 C 11418.900153 1252.151519 11401.163336 1241.90358 11388.944641 1226.137522 C 11357.806675 1416.11853 11256.903898 1578.114785 11116.980126 1675.864349 C 11031.055106 1779.132035 11012.924138 1831.160029 11064.163829 1913.143535 C 11742.892661 1930.092048 12226.122364 2086.964333 12226.122364 3531.923624 L 12226.122364 4058.90414 C 9234.906855 2866.990093 5886.984264 2861.866124 2902.863481 4051.02111 Z M 14498.01144 5313.094119 C 14566.987947 5358.027387 14635.964455 5404.143109 14704.152659 5451.047134 L 14706.911719 5453.017891 C 14777.858984 5501.892673 14848.806249 5551.161607 14918.96521 5602.007147 L 14920.147665 5603.189601 C 14991.09493 5654.035141 15060.85974 5704.880681 15131.018702 5758.091129 C 12574.946416 3805.070593 2557.980945 3812.953622 1.908659 5758.091129 C 70.885166 5706.063135 141.044128 5654.035141 210.020635 5603.189601 L 211.991392 5600.824692 C 282.150354 5551.161607 351.126862 5501.10437 422.074126 5451.835437 L 424.833187 5449.864679 C 483.167604 5408.872926 541.896173 5369.063628 601.018894 5330.042632 L 612.055135 5324.918663 C 4788.089965 2611.974092 10271.131071 2615.127303 14486.975199 5309.152604 L 14496.828986 5313.882422 Z M 10519.840648 2241.865861 L 10921.875148 2241.865861 C 10971.932385 2241.865861 11023.172076 2179.195777 11034.99662 2101.942089 C 11046.821164 2025.082552 11016.07735 1962.018317 10966.020113 1962.018317 L 10562.803159 1962.018317 C 10513.140073 1962.018317 10461.900382 2025.082552 10450.075838 2101.942089 C 10437.857143 2179.195777 10468.995109 2241.865861 10519.052346 2241.865861 Z M 10878.912638 2241.865861 L 10878.912638 2254.084557 L 10517.869891 2248.960587 C 10431.944871 2626.163545 10297.933371 3209.113569 10297.933371 3209.113569 C 10297.933371 3209.113569 10381.099331 3138.954608 10485.943622 3148.020092 C 10591.182065 3157.085575 10528.906132 3261.929867 10670.012359 3261.929867 C 10809.936131 3261.929867 10787.863648 3174.822392 10854.081095 3187.82939 C 10919.904391 3200.836389 10880.095092 2243.048315 10880.095092 2243.048315 Z M 3905.190671 2029.81237 C 3991.115691 2159.882355 4268.992478 2636.805634 4432.171187 3064.854131 L 4324.961987 2187.078807 L 4198.833516 2042.819368 L 3904.008216 2029.81237 Z M 4676.150947 3066.824889 C 4728.967244 2738.102562 4764.046725 2353.016576 4712.018731 2066.074305 L 4538.986235 2058.191276 L 4475.922 2181.954837 Z M 7854.982557 2390.855117 L 8353.978318 2390.855117 L 8353.978318 2498.85262 L 7854.982557 2498.85262 Z M 11332.186829 783.111269 C 11362.142341 846.963807 11383.032369 917.122769 11394.06861 990.829094 C 11409.046366 921.852586 11429.148091 852.087776 11437.03112 800.848085 C 11470.139844 610.867076 11448.067361 392.901313 11448.067361 195.825578 L 11204.087601 390.142253 Z M 11332.186829 783.111269 " stroke="#2b2a29" stroke-width="7.62" stroke-opacity="1" stroke-miterlimit="4"/></g><g fill="#160078" fill-opacity="1"><g transform="translate(134.646792, 270.570921)"><g><path d="M 19.3125 3.65625 C 17.863281 4.394531 16.390625 4.515625 14.890625 4.015625 C 13.304688 3.515625 11.941406 2.4375 10.796875 0.78125 C 10.179688 -0.101562 9.65625 -1.125 9.21875 -2.28125 L 8.578125 -3.984375 L 3.859375 -3.984375 L 2.796875 -1.453125 C 2.734375 -1.285156 2.703125 -1.144531 2.703125 -1.03125 C 2.703125 -0.925781 2.722656 -0.8125 2.765625 -0.6875 C 2.804688 -0.5625 2.90625 -0.445312 3.0625 -0.34375 C 3.21875 -0.25 3.390625 -0.203125 3.578125 -0.203125 L 3.734375 -0.203125 L 3.734375 0 L -0.546875 0 L -0.546875 -0.203125 L -0.359375 -0.203125 C -0.0546875 -0.203125 0.242188 -0.289062 0.546875 -0.46875 C 0.847656 -0.644531 1.097656 -0.914062 1.296875 -1.28125 L 5.75 -11.453125 C 5.226562 -12.628906 4.675781 -13.4375 4.09375 -13.875 C 3.601562 -14.25 3.132812 -14.4375 2.6875 -14.4375 C 2.238281 -14.4375 1.820312 -14.367188 1.4375 -14.234375 L 1.390625 -14.4375 C 2.347656 -14.9375 3.269531 -15.1875 4.15625 -15.1875 C 5.25 -15.1875 6.226562 -14.757812 7.09375 -13.90625 C 7.945312 -13.0625 8.703125 -11.847656 9.359375 -10.265625 L 12.25 -3.09375 C 13.34375 -0.394531 14.460938 1.460938 15.609375 2.484375 C 16.078125 2.890625 16.554688 3.171875 17.046875 3.328125 C 17.546875 3.492188 17.960938 3.578125 18.296875 3.578125 C 18.640625 3.578125 18.972656 3.535156 19.296875 3.453125 Z M 4.203125 -4.84375 L 8.28125 -4.84375 L 6.875 -8.546875 C 6.8125 -8.722656 6.71875 -8.972656 6.59375 -9.296875 C 6.476562 -9.628906 6.398438 -9.863281 6.359375 -10 Z M 4.203125 -4.84375 "/></g></g></g><g fill="#160078" fill-opacity="1"><g transform="translate(148.741232, 270.570921)"><g><path d="M 9.15625 0.265625 C 6.582031 0.265625 4.5625 -0.378906 3.09375 -1.671875 C 1.632812 -2.972656 0.90625 -4.75 0.90625 -7 C 0.90625 -9.25 1.628906 -11.023438 3.078125 -12.328125 C 4.535156 -13.628906 6.53125 -14.28125 9.0625 -14.28125 C 10.988281 -14.28125 12.648438 -13.921875 14.046875 -13.203125 L 14.078125 -9.765625 L 13.921875 -9.765625 C 13.242188 -12.210938 11.691406 -13.4375 9.265625 -13.4375 C 7.691406 -13.4375 6.445312 -12.863281 5.53125 -11.71875 C 4.613281 -10.582031 4.15625 -9.023438 4.15625 -7.046875 C 4.15625 -5.078125 4.59375 -3.515625 5.46875 -2.359375 C 6.34375 -1.203125 7.523438 -0.601562 9.015625 -0.5625 C 10.566406 -0.5625 11.75 -0.945312 12.5625 -1.71875 C 13.382812 -2.519531 13.957031 -3.894531 14.28125 -5.84375 L 14.4375 -5.84375 L 14.640625 -2.40625 C 13.554688 -0.613281 11.726562 0.273438 9.15625 0.265625 Z M 9.15625 0.265625 "/></g></g></g><g fill="#160078" fill-opacity="1"><g transform="translate(164.335076, 270.570921)"><g><path d="M 14.75 -0.203125 L 14.9375 -0.203125 L 14.9375 0 L 8.5625 0 L 8.5625 -0.203125 L 8.734375 -0.203125 C 9.023438 -0.203125 9.238281 -0.289062 9.375 -0.46875 C 9.519531 -0.644531 9.59375 -0.8125 9.59375 -0.96875 C 9.59375 -1.132812 9.5625 -1.296875 9.5 -1.453125 L 8.515625 -3.921875 L 3.828125 -3.921875 L 2.796875 -1.453125 C 2.734375 -1.285156 2.703125 -1.125 2.703125 -0.96875 C 2.703125 -0.8125 2.769531 -0.644531 2.90625 -0.46875 C 3.039062 -0.289062 3.265625 -0.203125 3.578125 -0.203125 L 3.734375 -0.203125 L 3.734375 0 L -0.546875 0 L -0.546875 -0.203125 L -0.359375 -0.203125 C -0.0546875 -0.203125 0.242188 -0.296875 0.546875 -0.484375 C 0.859375 -0.671875 1.113281 -0.945312 1.3125 -1.3125 L 5.9375 -11.78125 C 6.5625 -13.101562 6.894531 -13.976562 6.9375 -14.40625 L 7.109375 -14.40625 L 13.0625 -1.359375 C 13.257812 -0.972656 13.507812 -0.679688 13.8125 -0.484375 C 14.125 -0.296875 14.4375 -0.203125 14.75 -0.203125 Z M 4.171875 -4.765625 L 8.171875 -4.765625 L 6.234375 -9.6875 Z M 4.171875 -4.765625 "/></g></g></g><g fill="#160078" fill-opacity="1"><g transform="translate(178.649425, 270.570921)"><g><path d="M 8.09375 -14 C 10.457031 -14 12.328125 -13.367188 13.703125 -12.109375 C 15.078125 -10.859375 15.765625 -9.15625 15.765625 -7 C 15.765625 -4.84375 15.078125 -3.132812 13.703125 -1.875 C 12.328125 -0.625 10.457031 0 8.09375 0 L 0.84375 0 L 0.84375 -0.203125 L 1.09375 -0.203125 C 1.445312 -0.203125 1.742188 -0.320312 1.984375 -0.5625 C 2.234375 -0.8125 2.363281 -1.109375 2.375 -1.453125 L 2.375 -12.65625 C 2.332031 -12.976562 2.191406 -13.25 1.953125 -13.46875 C 1.710938 -13.6875 1.425781 -13.796875 1.09375 -13.796875 L 0.84375 -13.796875 L 0.84375 -14 Z M 7.84375 -0.84375 C 8.800781 -0.84375 9.628906 -1.09375 10.328125 -1.59375 C 11.023438 -2.09375 11.5625 -2.804688 11.9375 -3.734375 C 12.3125 -4.660156 12.5 -5.75 12.5 -7 C 12.5 -8.894531 12.082031 -10.394531 11.25 -11.5 C 10.414062 -12.601562 9.28125 -13.15625 7.84375 -13.15625 L 5.375 -13.15625 L 5.375 -0.84375 Z M 7.84375 -0.84375 "/></g></g></g><g fill="#160078" fill-opacity="1"><g transform="translate(195.202891, 270.570921)"><g><path d="M 1.09375 -0.203125 C 1.445312 -0.203125 1.742188 -0.320312 1.984375 -0.5625 C 2.234375 -0.8125 2.363281 -1.109375 2.375 -1.453125 L 2.375 -12.59375 C 2.332031 -13.0625 2.113281 -13.410156 1.71875 -13.640625 C 1.519531 -13.742188 1.3125 -13.796875 1.09375 -13.796875 L 0.84375 -13.796875 L 0.84375 -14 L 8.5 -14 C 8.914062 -14 9.367188 -14.035156 9.859375 -14.109375 C 10.347656 -14.191406 10.695312 -14.273438 10.90625 -14.359375 L 10.90625 -10.859375 L 10.703125 -10.859375 L 10.703125 -11.09375 C 10.703125 -11.695312 10.523438 -12.179688 10.171875 -12.546875 C 9.816406 -12.910156 9.335938 -13.109375 8.734375 -13.140625 L 5.375 -13.140625 L 5.375 -7.3125 L 8.015625 -7.3125 C 8.515625 -7.332031 8.921875 -7.503906 9.234375 -7.828125 C 9.554688 -8.148438 9.71875 -8.554688 9.71875 -9.046875 L 9.71875 -9.21875 L 9.921875 -9.21875 L 9.921875 -4.59375 L 9.71875 -4.59375 L 9.71875 -4.765625 C 9.71875 -5.429688 9.453125 -5.921875 8.921875 -6.234375 C 8.648438 -6.378906 8.359375 -6.460938 8.046875 -6.484375 L 5.375 -6.484375 L 5.375 -0.859375 L 8 -0.859375 C 8.96875 -0.859375 9.78125 -1.140625 10.4375 -1.703125 C 11.101562 -2.265625 11.597656 -3.054688 11.921875 -4.078125 L 12.125 -4.078125 L 11.203125 0 L 0.84375 0 L 0.84375 -0.203125 Z M 1.09375 -0.203125 "/></g></g></g><g fill="#160078" fill-opacity="1"><g transform="translate(207.817919, 270.570921)"><g><path d="M 18.9375 -0.203125 L 19.265625 -0.203125 L 19.265625 0 L 13.265625 0 L 13.265625 -0.1875 L 13.5625 -0.1875 C 13.789062 -0.1875 13.984375 -0.273438 14.140625 -0.453125 C 14.296875 -0.628906 14.363281 -0.828125 14.34375 -1.046875 L 13.5625 -8.296875 L 9.796875 -1.8125 C 9.304688 -0.988281 9.054688 -0.25 9.046875 0.40625 L 8.84375 0.40625 L 3.703125 -8.234375 L 2.921875 -1.046875 C 2.890625 -0.828125 2.953125 -0.628906 3.109375 -0.453125 C 3.273438 -0.273438 3.472656 -0.1875 3.703125 -0.1875 L 4 -0.1875 L 4 0 L -0.1875 0 L -0.1875 -0.203125 L 0.140625 -0.203125 C 0.515625 -0.203125 0.835938 -0.3125 1.109375 -0.53125 C 1.378906 -0.757812 1.539062 -1.066406 1.59375 -1.453125 L 3.265625 -14.28125 L 3.4375 -14.28125 L 9.640625 -4.078125 L 15.59375 -14.28125 L 15.78125 -14.28125 L 17.484375 -1.453125 C 17.546875 -1.066406 17.710938 -0.757812 17.984375 -0.53125 C 18.265625 -0.3125 18.582031 -0.203125 18.9375 -0.203125 Z M 18.9375 -0.203125 "/></g></g></g><g fill="#160078" fill-opacity="1"><g transform="translate(226.870396, 270.570921)"><g><path d="M 1.09375 -0.203125 C 1.445312 -0.203125 1.742188 -0.320312 1.984375 -0.5625 C 2.234375 -0.8125 2.363281 -1.109375 2.375 -1.453125 L 2.375 -12.5625 C 2.363281 -12.90625 2.234375 -13.195312 1.984375 -13.4375 C 1.742188 -13.675781 1.445312 -13.796875 1.09375 -13.796875 L 0.84375 -13.796875 L 0.84375 -14 L 6.921875 -14 L 6.90625 -13.796875 L 6.65625 -13.796875 C 6.3125 -13.796875 6.007812 -13.675781 5.75 -13.4375 C 5.5 -13.195312 5.375 -12.90625 5.375 -12.5625 L 5.375 -1.453125 C 5.375 -1.109375 5.5 -0.8125 5.75 -0.5625 C 6.007812 -0.320312 6.3125 -0.203125 6.65625 -0.203125 L 6.90625 -0.203125 L 6.921875 0 L 0.84375 0 L 0.84375 -0.203125 Z M 1.09375 -0.203125 "/></g></g></g><g fill="#160078" fill-opacity="1"><g transform="translate(234.587353, 270.570921)"><g><path d="M 29.59375 4.046875 C 28.226562 4.972656 26.476562 5.4375 24.34375 5.4375 C 22.070312 5.4375 19.804688 5.003906 17.546875 4.140625 C 16.878906 3.890625 15.894531 3.484375 14.59375 2.921875 C 11.1875 1.429688 9.0625 0.550781 8.21875 0.28125 L 8.21875 0.078125 L 8.265625 0.078125 C 8.273438 0.078125 8.285156 0.078125 8.296875 0.078125 C 9.890625 0.078125 11.285156 -0.421875 12.484375 -1.421875 C 13.078125 -1.929688 13.566406 -2.609375 13.953125 -3.453125 C 14.398438 -4.429688 14.625 -5.535156 14.625 -6.765625 C 14.625 -8.484375 14.1875 -9.984375 13.3125 -11.265625 C 12.863281 -11.910156 12.289062 -12.441406 11.59375 -12.859375 C 10.832031 -13.316406 9.972656 -13.546875 9.015625 -13.546875 C 7.523438 -13.546875 6.257812 -12.972656 5.21875 -11.828125 C 4.175781 -10.691406 3.65625 -9.085938 3.65625 -7.015625 C 3.65625 -5.585938 3.941406 -4.390625 4.515625 -3.421875 C 5.203125 -2.273438 6.203125 -1.703125 7.515625 -1.703125 C 7.796875 -1.703125 8.117188 -1.742188 8.484375 -1.828125 C 8.859375 -1.910156 9.238281 -2.148438 9.625 -2.546875 C 10.019531 -2.953125 10.269531 -3.476562 10.375 -4.125 L 10.59375 -4.09375 C 10.582031 -2.976562 10.257812 -2.164062 9.625 -1.65625 C 8.96875 -1.15625 8.226562 -0.90625 7.40625 -0.90625 C 6.976562 -0.90625 6.515625 -0.9375 6.015625 -1 C 4.378906 -1.28125 3.039062 -1.976562 2 -3.09375 C 0.96875 -4.21875 0.453125 -5.582031 0.453125 -7.1875 C 0.453125 -8.195312 0.660156 -9.148438 1.078125 -10.046875 C 1.941406 -11.867188 3.460938 -13.140625 5.640625 -13.859375 C 6.691406 -14.203125 7.835938 -14.375 9.078125 -14.375 C 11.679688 -14.375 13.785156 -13.679688 15.390625 -12.296875 C 17.003906 -10.910156 17.8125 -9.164062 17.8125 -7.0625 C 17.8125 -6.019531 17.613281 -5.050781 17.21875 -4.15625 C 16.832031 -3.257812 16.3125 -2.515625 15.65625 -1.921875 C 14.320312 -0.671875 12.765625 0.0859375 10.984375 0.359375 C 12.148438 0.535156 13.660156 0.828125 15.515625 1.234375 C 17.378906 1.640625 18.679688 1.921875 19.421875 2.078125 C 22.347656 2.703125 24.738281 3.015625 26.59375 3.015625 C 26.820312 3.015625 27.179688 3 27.671875 2.96875 C 28.171875 2.945312 28.78125 2.828125 29.5 2.609375 C 30.226562 2.398438 30.820312 2.09375 31.28125 1.6875 L 31.40625 1.765625 C 31.09375 2.679688 30.488281 3.441406 29.59375 4.046875 Z M 29.59375 4.046875 "/></g></g></g></svg>